<?xml version="1.0" encoding="UTF-8"?>
<svg xmlns="http://www.w3.org/2000/svg" viewBox="0 0 400 400" fill="none">
  <style>
    @keyframes float {
      0% { transform: translateY(0px); }
      50% { transform: translateY(-10px); }
      100% { transform: translateY(0px); }
    }
    
    @keyframes glow {
      0% { opacity: 0.6; }
      50% { opacity: 1; }
      100% { opacity: 0.6; }
    }
    
    @keyframes blink {
      0%, 45%, 55%, 100% { transform: scaleY(1); }
      50% { transform: scaleY(0.1); }
    }
    
    @keyframes pulse {
      0% { stroke-width: 0.5; }
      50% { stroke-width: 1.5; }
      100% { stroke-width: 0.5; }
    }
    
    @keyframes rotate {
      from { transform: rotate(0deg); }
      to { transform: rotate(360deg); }
    }
    
    @keyframes dash {
      to { stroke-dashoffset: -20; }
    }
    
    @keyframes binary-fade {
      0%, 100% { opacity: 0.2; }
      50% { opacity: 0.8; }
    }
    
    .character { animation: float 6s ease-in-out infinite; }
    .eyes { animation: blink 4s infinite; }
    .grid { animation: pulse 8s infinite; }
    .inner-circle { animation: rotate 20s linear infinite; }
    .dash-circle { animation: dash 20s linear infinite; stroke-dasharray: 5 3; stroke-dashoffset: 0; }
    .glow { animation: glow 3s infinite; }
    .binary { animation: binary-fade 2s infinite; }
  </style>
  
  <rect width="400" height="400" fill="#0F172A"/>
  
  <!-- Grid and Cyberpunk Environment -->
  <g class="grid">
    <path d="M50 200 L350 200" stroke="#00F0FF" stroke-width="0.5" stroke-dasharray="5 3"/>
    <path d="M200 50 L200 350" stroke="#00F0FF" stroke-width="0.5" stroke-dasharray="5 3"/>
  </g>
  <circle class="dash-circle" cx="200" cy="200" r="150" stroke="#00F0FF" stroke-width="0.5" fill="none"/>
  <circle class="inner-circle" cx="200" cy="200" r="100" stroke="#00F0FF" stroke-width="0.5" fill="none"/>
  
  <!-- Anime Character -->
  <g class="character">
    <!-- Flowing skirt -->
    <path d="M200 120 C230 120 250 140 250 180 C250 220 240 280 200 320 C160 280 150 220 150 180 C150 140 170 120 200 120" fill="#9D4EDD" opacity="0.6"/>
    <path d="M200 140 C220 140 235 155 235 185 C235 215 225 275 200 305 C175 275 165 215 165 185 C165 155 180 140 200 140" fill="#00F0FF" opacity="0.3"/>
    
    <!-- Body and clothing -->
    <path d="M170 180 C170 160 180 140 200 140 C220 140 230 160 230 180 L230 230 C230 250 220 260 200 260 C180 260 170 250 170 230 Z" fill="#1A1E2C"/>
    <path d="M180 160 C180 150 190 140 200 140 C210 140 220 150 220 160 L220 200 C220 210 210 220 200 220 C190 220 180 210 180 200 Z" fill="#151A2D"/>
    
    <!-- Vintage-style clothing accents -->
    <path class="glow" d="M190 200 C190 195 195 190 200 190 C205 190 210 195 210 200 L210 220 C210 225 205 230 200 230 C195 230 190 225 190 220 Z" fill="#00F0FF" opacity="0.4"/>
    <path class="glow" d="M170 230 C170 230 180 240 200 240 C220 240 230 230 230 230 L230 260 C230 270 220 280 200 280 C180 280 170 270 170 260 Z" fill="#9D4EDD" opacity="0.5"/>
    
    <!-- Face -->
    <circle cx="200" cy="125" r="25" fill="#0F172A" stroke="#00F0FF" stroke-width="0.5"/>
    <path d="M190 130 C190 130 195 135 200 135 C205 135 210 130 210 130" stroke="#00F0FF" stroke-width="1" fill="none"/>
    
    <!-- Eyes -->
    <g class="eyes">
      <ellipse cx="190" cy="120" rx="3" ry="3.5" fill="#00F0FF"/>
      <ellipse cx="210" cy="120" rx="3" ry="3.5" fill="#00F0FF"/>
    </g>
    
    <!-- Long black hair with soft shine -->
    <path d="M175 125 C170 110 170 90 180 75 C190 60 210 60 220 75 C230 90 230 110 225 125" fill="#151A2D" stroke="#00F0FF" stroke-width="0.2"/>
    <path d="M175 125 C160 135 160 180 155 230 C150 280 160 300 150 320" stroke="#151A2D" stroke-width="4"/>
    <path d="M225 125 C240 135 240 180 245 230 C250 280 240 300 250 320" stroke="#151A2D" stroke-width="4"/>
    <path class="glow" d="M190 75 C190 75 200 65 210 75" stroke="#00F0FF" stroke-width="0.5" opacity="0.5"/>
    <path class="glow" d="M180 90 C180 90 190 80 200 85 C210 80 220 90 220 90" stroke="#00F0FF" stroke-width="0.5" opacity="0.3"/>
    
    <!-- Hair highlights -->
    <path class="glow" d="M160 140 C165 130 175 120 185 125" stroke="#00F0FF" stroke-width="0.5" opacity="0.5"/>
    <path class="glow" d="M240 140 C235 130 225 120 215 125" stroke="#00F0FF" stroke-width="0.5" opacity="0.5"/>
  </g>
  
  <!-- Network Nodes -->
  <circle class="glow" cx="120" cy="100" r="5" fill="#00F0FF" opacity="0.8"/>
  <circle class="glow" cx="280" cy="120" r="5" fill="#00F0FF" opacity="0.8"/>
  <circle class="glow" cx="100" cy="250" r="5" fill="#00F0FF" opacity="0.8"/>
  <circle class="glow" cx="300" cy="280" r="5" fill="#00F0FF" opacity="0.8"/>
  
  <!-- Connection Lines -->
  <path class="glow" d="M120 100 L200 125" stroke="#00F0FF" stroke-width="0.5" opacity="0.6"/>
  <path class="glow" d="M280 120 L200 125" stroke="#00F0FF" stroke-width="0.5" opacity="0.6"/>
  <path class="glow" d="M100 250 L160 240" stroke="#00F0FF" stroke-width="0.5" opacity="0.6"/>
  <path class="glow" d="M300 280 L240 240" stroke="#00F0FF" stroke-width="0.5" opacity="0.6"/>
  
  <!-- Binary Numbers -->
  <text class="binary" x="90" y="85" fill="#00F0FF" opacity="0.8" font-size="8" font-family="monospace">10101</text>
  <text class="binary" x="270" y="105" fill="#00F0FF" opacity="0.8" font-size="8" font-family="monospace">01010</text>
  <text class="binary" x="80" y="265" fill="#00F0FF" opacity="0.8" font-size="8" font-family="monospace">11001</text>
  <text class="binary" x="290" y="295" fill="#00F0FF" opacity="0.8" font-size="8" font-family="monospace">00110</text>
  
  <!-- Cyberpunk / Tech Elements -->
  <circle class="inner-circle" cx="200" cy="180" r="70" stroke="#00F0FF" stroke-width="0.2" opacity="0.2" fill="none" stroke-dasharray="2 3"/>
  <circle class="dash-circle" cx="200" cy="180" r="85" stroke="#9D4EDD" stroke-width="0.2" opacity="0.1" fill="none" stroke-dasharray="3 5"/>
</svg>