<?xml version="1.0" encoding="UTF-8"?>
<svg xmlns="http://www.w3.org/2000/svg" viewBox="0 0 200 200" fill="none">
  <!-- Background -->
  <circle cx="100" cy="100" r="100" fill="#0F172A"/>
  <circle cx="100" cy="100" r="95" stroke="#00F0FF" stroke-width="1" stroke-opacity="0.4" fill="none"/>
  <circle cx="100" cy="100" r="85" stroke="#9D4EDD" stroke-width="0.5" stroke-opacity="0.6" fill="none"/>
  
  <!-- Cyberpunk grid elements -->
  <line x1="0" y1="100" x2="200" y2="100" stroke="#9D4EDD" stroke-width="0.5" stroke-opacity="0.2" stroke-dasharray="2 4"/>
  <line x1="100" y1="0" x2="100" y2="200" stroke="#9D4EDD" stroke-width="0.5" stroke-opacity="0.2" stroke-dasharray="2 4"/>
  
  <!-- Face shape -->
  <circle cx="100" cy="90" r="55" fill="#151A2D"/>
  <path d="M100 140 L85 170 L115 170 Z" fill="#151A2D"/>
  
  <!-- Hair -->
  <path d="M55 75 C55 45 75 30 100 30 C125 30 145 45 145 75 C145 80 143 85 140 90 C120 110 80 110 60 90 C57 85 55 80 55 75 Z" fill="#2B0B3F"/>
  <path d="M55 75 C50 60 65 45 80 40 L100 38 L120 40 C135 45 150 60 145 75" stroke="#9D4EDD" stroke-width="1" stroke-opacity="0.6"/>
  
  <!-- Cyberpunk elements over hair -->
  <line x1="70" y1="45" x2="60" y2="35" stroke="#9D4EDD" stroke-width="1" stroke-opacity="0.7"/>
  <line x1="130" y1="45" x2="140" y2="35" stroke="#9D4EDD" stroke-width="1" stroke-opacity="0.7"/>
  <circle cx="60" cy="35" r="2" fill="#9D4EDD" fill-opacity="0.8"/>
  <circle cx="140" cy="35" r="2" fill="#9D4EDD" fill-opacity="0.8"/>
  
  <!-- Face features -->
  <ellipse cx="80" cy="85" rx="5" ry="6" fill="#0F172A"/>
  <ellipse cx="120" cy="85" rx="5" ry="6" fill="#0F172A"/>
  <ellipse cx="80" cy="85" rx="2" ry="3" fill="#9D4EDD" fill-opacity="0.9"/>
  <ellipse cx="120" cy="85" rx="2" ry="3" fill="#9D4EDD" fill-opacity="0.9"/>
  
  <!-- Eyebrows -->
  <path d="M75 78 L85 75" stroke="#2B0B3F" stroke-width="2" stroke-linecap="round"/>
  <path d="M115 75 L125 78" stroke="#2B0B3F" stroke-width="2" stroke-linecap="round"/>
  
  <!-- Mouth -->
  <path d="M90 110 C95 115 105 115 110 110" stroke="#9D4EDD" stroke-width="1.5" stroke-opacity="0.8" fill="none"/>
  
  <!-- Facial enhancements -->
  <path d="M90 95 L110 95" stroke="#9D4EDD" stroke-width="0.5" stroke-opacity="0.3" fill="none"/>
  <path d="M65 85 L50 75" stroke="#9D4EDD" stroke-width="0.8" stroke-opacity="0.5" stroke-dasharray="1 2"/>
  <path d="M135 85 L150 75" stroke="#9D4EDD" stroke-width="0.8" stroke-opacity="0.5" stroke-dasharray="1 2"/>
  <circle cx="50" cy="75" r="1.5" fill="#9D4EDD" fill-opacity="0.7"/>
  <circle cx="150" cy="75" r="1.5" fill="#9D4EDD" fill-opacity="0.7"/>
  
  <!-- Hair highlights -->
  <path d="M70 45 C80 35 90 32 100 30" stroke="#C77DFF" stroke-width="0.8" stroke-opacity="0.8"/>
  <path d="M130 45 C120 35 110 32 100 30" stroke="#C77DFF" stroke-width="0.8" stroke-opacity="0.8"/>
  
  <!-- Cyberpunk data points -->
  <text x="48" y="70" fill="#9D4EDD" font-family="monospace" font-size="5" opacity="0.8">AIx</text>
  <text x="147" y="70" fill="#9D4EDD" font-family="monospace" font-size="5" opacity="0.8">SYS</text>
  
  <!-- Binary code decoration -->
  <text x="83" y="155" fill="#9D4EDD" font-family="monospace" font-size="5" opacity="0.6">11101</text>
  <text x="105" y="155" fill="#9D4EDD" font-family="monospace" font-size="5" opacity="0.6">00111</text>
</svg>