<?xml version="1.0" encoding="UTF-8"?>
<svg xmlns="http://www.w3.org/2000/svg" viewBox="0 0 200 200" fill="none">
  <!-- Background -->
  <circle cx="100" cy="100" r="100" fill="#0F172A"/>
  <circle cx="100" cy="100" r="95" stroke="#00F0FF" stroke-width="1" stroke-opacity="0.4" fill="none"/>
  <circle cx="100" cy="100" r="85" stroke="#00F0FF" stroke-width="0.5" stroke-opacity="0.3" fill="none"/>
  
  <!-- Cyberpunk grid elements -->
  <line x1="0" y1="100" x2="200" y2="100" stroke="#00F0FF" stroke-width="0.5" stroke-opacity="0.2" stroke-dasharray="2 4"/>
  <line x1="100" y1="0" x2="100" y2="200" stroke="#00F0FF" stroke-width="0.5" stroke-opacity="0.2" stroke-dasharray="2 4"/>
  
  <!-- Face shape -->
  <circle cx="100" cy="90" r="55" fill="#151A2D"/>
  <path d="M100 140 L85 170 L115 170 Z" fill="#151A2D"/>
  
  <!-- Hair -->
  <path d="M55 70 C55 50 75 35 100 35 C125 35 145 50 145 70 L145 85 C145 90 140 95 135 95 L65 95 C60 95 55 90 55 85 L55 70 Z" fill="#151A2D"/>
  
  <!-- Face features -->
  <ellipse cx="80" cy="85" rx="5" ry="6" fill="#0F172A"/>
  <ellipse cx="120" cy="85" rx="5" ry="6" fill="#0F172A"/>
  <ellipse cx="80" cy="85" rx="2" ry="3" fill="#00F0FF" fill-opacity="0.9"/>
  <ellipse cx="120" cy="85" rx="2" ry="3" fill="#00F0FF" fill-opacity="0.9"/>
  
  <!-- Eyebrows -->
  <path d="M73 78 L87 75" stroke="#00F0FF" stroke-width="2" stroke-linecap="round"/>
  <path d="M113 75 L127 78" stroke="#00F0FF" stroke-width="2" stroke-linecap="round"/>
  
  <!-- Mouth -->
  <path d="M90 110 L110 110" stroke="#00F0FF" stroke-width="1.5" stroke-opacity="0.8" fill="none"/>
  
  <!-- Facial enhancements -->
  <path d="M90 95 L110 95" stroke="#00F0FF" stroke-width="0.5" stroke-opacity="0.3" fill="none"/>
  <path d="M65 85 L50 75" stroke="#00F0FF" stroke-width="0.8" stroke-opacity="0.5" stroke-dasharray="1 2"/>
  <path d="M135 85 L150 75" stroke="#00F0FF" stroke-width="0.8" stroke-opacity="0.5" stroke-dasharray="1 2"/>
  <circle cx="50" cy="75" r="1.5" fill="#00F0FF" fill-opacity="0.7"/>
  <circle cx="150" cy="75" r="1.5" fill="#00F0FF" fill-opacity="0.7"/>
  
  <!-- Cyberpunk elements -->
  <path d="M60 60 L50 50" stroke="#00F0FF" stroke-width="1" stroke-opacity="0.7"/>
  <path d="M140 60 L150 50" stroke="#00F0FF" stroke-width="1" stroke-opacity="0.7"/>
  <circle cx="50" cy="50" r="2" fill="#00F0FF" fill-opacity="0.8"/>
  <circle cx="150" cy="50" r="2" fill="#00F0FF" fill-opacity="0.8"/>
  
  <!-- Security patterns -->
  <path d="M60 55 C70 45 85 40 100 40 C115 40 130 45 140 55" stroke="#00F0FF" stroke-width="0.5" stroke-opacity="0.7" stroke-dasharray="1 1" fill="none"/>
  <path d="M65 50 C75 42 90 38 100 38 C110 38 125 42 135 50" stroke="#00F0FF" stroke-width="0.5" stroke-opacity="0.5" stroke-dasharray="1 1" fill="none"/>
  
  <!-- Cyberpunk data points -->
  <text x="47" y="45" fill="#00F0FF" font-family="monospace" font-size="5" opacity="0.8">SEC</text>
  <text x="145" y="45" fill="#00F0FF" font-family="monospace" font-size="5" opacity="0.8">SYS</text>
  
  <!-- Binary code decoration -->
  <text x="83" y="155" fill="#00F0FF" font-family="monospace" font-size="5" opacity="0.6">10010</text>
  <text x="105" y="155" fill="#00F0FF" font-family="monospace" font-size="5" opacity="0.6">11001</text>
  
  <!-- Security emblems -->
  <circle cx="65" cy="50" r="1" fill="#00F0FF" fill-opacity="0.8"/>
  <circle cx="135" cy="50" r="1" fill="#00F0FF" fill-opacity="0.8"/>
</svg>