<svg xmlns="http://www.w3.org/2000/svg" width="32" height="32" viewBox="0 0 32 32" fill="none">
  <!-- Background circle with gradent -->
  <circle cx="16" cy="16" r="16" fill="#0A0A0A"/>
  
  <!-- Outer glow ring -->
  <circle cx="16" cy="16" r="15" stroke="#00F0FF" stroke-opacity="0.5" stroke-width="1.5"/>
  
  <!-- "S" letter with neon glow effect -->
  <path 
    d="M11 11.5C11 10.6716 11.6716 10 12.5 10H19.5C20.3284 10 21 10.6716 21 11.5C21 12.3284 20.3284 13 19.5 13H12.5C11.6716 13 11 12.3284 11 11.5Z" 
    fill="#00F0FF"
  />
  <path 
    d="M11 16C11 15.1716 11.6716 14.5 12.5 14.5H19.5C20.3284 14.5 21 15.1716 21 16C21 16.8284 20.3284 17.5 19.5 17.5H12.5C11.6716 17.5 11 16.8284 11 16Z" 
    fill="#00F0FF"
  />
  <path 
    d="M11 20.5C11 19.6716 11.6716 19 12.5 19H19.5C20.3284 19 21 19.6716 21 20.5C21 21.3284 20.3284 22 19.5 22H12.5C11.6716 22 11 21.3284 11 20.5Z" 
    fill="#00F0FF"
  />
  
  <!-- Binary code details -->
  <path 
    d="M7 9L8 9" 
    stroke="#00F0FF" 
    stroke-opacity="0.3"
    stroke-width="0.5"
  />
  <path 
    d="M6 11L8 11" 
    stroke="#00F0FF" 
    stroke-opacity="0.3"
    stroke-width="0.5"
  />
  <path 
    d="M7 13L9 13" 
    stroke="#00F0FF" 
    stroke-opacity="0.3"
    stroke-width="0.5"
  />
  <path 
    d="M24 9L25 9" 
    stroke="#00F0FF" 
    stroke-opacity="0.3"
    stroke-width="0.5"
  />
  <path 
    d="M23 11L26 11" 
    stroke="#00F0FF" 
    stroke-opacity="0.3"
    stroke-width="0.5"
  />
  <path 
    d="M24 13L25 13" 
    stroke="#00F0FF" 
    stroke-opacity="0.3"
    stroke-width="0.5"
  />
</svg>